<?xml version="1.0" encoding="utf-8"?>
<!-- Generator: Adobe Illustrator 28.1.0, SVG Export Plug-In . SVG Version: 6.00 Build 0)  -->
<svg version="1.1" id="Layer_1" xmlns="http://www.w3.org/2000/svg" xmlns:xlink="http://www.w3.org/1999/xlink" x="0px" y="0px"
	 viewBox="0 0 1500 548.44" style="enable-background:new 0 0 1500 548.44;" xml:space="preserve">
<style type="text/css">
	.st0{fill:url(#SVGID_1_);}
	.st1{fill-rule:evenodd;clip-rule:evenodd;fill:url(#SVGID_00000155144460114462389380000012076941259184427693_);}
	.st2{fill-rule:evenodd;clip-rule:evenodd;fill:url(#SVGID_00000149365441416613624310000006171233237648271027_);}
	.st3{fill-rule:evenodd;clip-rule:evenodd;fill:url(#SVGID_00000001626827334214482110000010701635608147980941_);}
	.st4{fill-rule:evenodd;clip-rule:evenodd;fill:url(#SVGID_00000013191250082994912360000007946534390034368173_);}
	.st5{fill-rule:evenodd;clip-rule:evenodd;fill:url(#SVGID_00000024694612622946437100000014759763770366026149_);}
	.st6{fill-rule:evenodd;clip-rule:evenodd;fill:url(#SVGID_00000141426405106600450610000008404600215942816176_);}
	.st7{fill-rule:evenodd;clip-rule:evenodd;fill:url(#SVGID_00000054237253602391320360000007827048957243434380_);}
	.st8{fill:#282828;}
</style>
<g>
	<g>
		<g>
			<linearGradient id="SVGID_1_" gradientUnits="userSpaceOnUse" x1="980.0562" y1="331.2043" x2="1463.2166" y2="331.2043">
				<stop  offset="0" style="stop-color:#0089CE"/>
				<stop  offset="1" style="stop-color:#1C0A89"/>
			</linearGradient>
			<path class="st0" d="M1434.3,256.39c-21.85-24.64-55.57-40.83-88.68-40.92c-23.58-0.06-47.03,7.61-66.24,21.23
				c-5.77,4.09-51.78,44.58-60.26,53.77c-2.7-4.73-49.52-49.61-55.23-53.67c-19.21-13.62-42.66-21.29-66.24-21.23
				c-33.12,0.09-66.83,16.28-88.68,40.92c-29.36,33.29-37.4,82.26-19.32,123.4c6.12,13.92,15.06,26.84,26.57,37.4
				c14.1,12.95,31.31,22.07,49.91,26.62c18.75,4.59,35.11,3.82,53.69-1.36c20.3-5.66,39.51-15.21,56.32-27.92
				c16.72-12.64,46.64-45.5,46.87-45.72c0.2,0.19,30.74,31.45,45.76,45.41c15.44,14.35,34.38,22.48,54.69,28.14
				c18.58,5.18,34.94,5.95,53.69,1.36c18.6-4.55,35.81-13.67,49.91-26.62c11.51-10.57,20.45-23.49,26.57-37.4
				C1471.7,338.65,1463.66,289.68,1434.3,256.39z M1134.51,383.75c-28.54,24.71-67.11,32.66-99.94,10.77
				c-41.34-26.66-49.44-86.75-14.25-121.87c1.32-1.32,2.69-2.58,4.1-3.8c17.12-14.69,40.78-21.59,63.1-18.14
				c25.61,3.96,38.31,20.56,55.6,37.76c14.69,14.61,27.51,27.75,41.28,42.01C1168.46,347.94,1142.99,376.41,1134.51,383.75z
				 M1408.71,394.42c-32.83,21.89-68.03,12.71-96.56-12c-8.48-7.34-33.39-32.33-51.32-51.32c13.77-14.26,24.64-28.11,39.33-42.73
				c17.29-17.19,29.99-33.8,55.6-37.76c22.32-3.45,45.98,3.46,63.1,18.14c1.41,1.21,2.78,2.48,4.1,3.8
				C1458.15,307.68,1450.04,367.77,1408.71,394.42z"/>
		</g>
		<g>
			
				<linearGradient id="SVGID_00000089541702312575605090000001145470358292218038_" gradientUnits="userSpaceOnUse" x1="2001.1418" y1="1678.8352" x2="2016.3883" y2="1678.8352" gradientTransform="matrix(0.956 -0.2932 0.2932 0.956 -1270.8763 -813.0435)">
				<stop  offset="0" style="stop-color:#0089CE"/>
				<stop  offset="1" style="stop-color:#1C0A89"/>
			</linearGradient>
			<path style="fill-rule:evenodd;clip-rule:evenodd;fill:url(#SVGID_00000089541702312575605090000001145470358292218038_);" d="
				M1137.55,196.7c-3.47,2.38-4.35,7.13-1.97,10.59c2.38,3.47,7.13,4.36,10.6,1.97c3.47-2.38,4.35-7.13,1.97-10.59
				C1145.76,195.2,1141.02,194.31,1137.55,196.7z"/>
			
				<linearGradient id="SVGID_00000057841078395510740880000002419735697497010577_" gradientUnits="userSpaceOnUse" x1="2098.6282" y1="1593.4739" x2="2135.0354" y2="1593.4739" gradientTransform="matrix(0.956 -0.2932 0.2932 0.956 -1270.8763 -813.0435)">
				<stop  offset="0" style="stop-color:#0089CE"/>
				<stop  offset="1" style="stop-color:#1C0A89"/>
			</linearGradient>
			<path style="fill-rule:evenodd;clip-rule:evenodd;fill:url(#SVGID_00000057841078395510740880000002419735697497010577_);" d="
				M1216.83,107.58c9.88,1.84,19.38-4.7,21.21-14.57c1.84-9.88-4.68-19.38-14.57-21.22c-9.88-1.84-19.38,4.69-21.21,14.57
				C1200.42,96.24,1206.94,105.74,1216.83,107.58z"/>
			
				<linearGradient id="SVGID_00000170244427095065315240000017101744776421773726_" gradientUnits="userSpaceOnUse" x1="2201.9961" y1="1642.2352" x2="2225.5217" y2="1642.2352" gradientTransform="matrix(0.956 -0.2932 0.2932 0.956 -1270.8763 -813.0435)">
				<stop  offset="0" style="stop-color:#0089CE"/>
				<stop  offset="1" style="stop-color:#1C0A89"/>
			</linearGradient>
			<path style="fill-rule:evenodd;clip-rule:evenodd;fill:url(#SVGID_00000170244427095065315240000017101744776421773726_);" d="
				M1331.04,118.97c6.13-2.17,9.33-8.89,7.16-15.01c-2.17-6.13-8.89-9.33-15.01-7.17c-6.14,2.17-9.33,8.89-7.17,15.01
				C1318.19,117.93,1324.91,121.13,1331.04,118.97z"/>
			
				<linearGradient id="SVGID_00000119098695537587199000000009847478504977681071_" gradientUnits="userSpaceOnUse" x1="2233.8396" y1="1676.1892" x2="2249.0823" y2="1676.1892" gradientTransform="matrix(0.956 -0.2932 0.2932 0.956 -1270.8763 -813.0435)">
				<stop  offset="0" style="stop-color:#0089CE"/>
				<stop  offset="1" style="stop-color:#1C0A89"/>
			</linearGradient>
			<path style="fill-rule:evenodd;clip-rule:evenodd;fill:url(#SVGID_00000119098695537587199000000009847478504977681071_);" d="
				M1367.87,138.5c3.47-2.37,4.34-7.11,1.97-10.59c-2.38-3.47-7.13-4.35-10.6-1.97c-3.47,2.39-4.35,7.13-1.97,10.6
				C1359.66,140,1364.4,140.89,1367.87,138.5z"/>
			
				<linearGradient id="SVGID_00000016786991870238690430000007429188617859023799_" gradientUnits="userSpaceOnUse" x1="2026.0853" y1="1623.8015" x2="2189.3142" y2="1623.8015" gradientTransform="matrix(0.956 -0.2932 0.2932 0.956 -1270.8763 -813.0435)">
				<stop  offset="0" style="stop-color:#0089CE"/>
				<stop  offset="1" style="stop-color:#1C0A89"/>
			</linearGradient>
			<path style="fill-rule:evenodd;clip-rule:evenodd;fill:url(#SVGID_00000016786991870238690430000007429188617859023799_);" d="
				M1281.93,106.71c8.28-0.92,14.42-8.27,13.76-16.66c-0.67-8.55-8.14-14.94-16.7-14.26c-8.56,0.67-14.94,8.14-14.27,16.7
				c0.04,0.5,0.1,0.99,0.18,1.47c1,5.7-0.26,10.97-3.74,15.6l-20.46,27.29c-3.47,4.63-8.19,7.32-13.94,7.96
				c-0.46,0.05-0.92,0.12-1.37,0.21c-5.67,1.15-10.98,0.03-15.69-3.31l-25.5-18.07c-5.51-3.9-8.52-9.7-8.53-16.44
				c-0.02-8.21-4.64-16.08-12.55-19.85c-10.97-5.25-24.12-0.59-29.37,10.38c-5.23,10.98-0.59,24.13,10.4,29.38
				c5.46,2.6,11.45,2.76,16.75,0.91c6.37-2.23,12.85-1.31,18.35,2.58l25.51,18.09c4.72,3.35,7.54,7.98,8.33,13.72
				c1.12,8.08,8.36,13.99,16.6,13.34c8.55-0.67,14.94-8.15,14.27-16.7c-0.04-0.5-0.1-0.99-0.19-1.48c-1-5.7,0.27-10.97,3.74-15.6
				l20.46-27.28C1271.46,110.04,1276.17,107.34,1281.93,106.71z"/>
			
				<linearGradient id="SVGID_00000080196503106991347390000014415587254226546570_" gradientUnits="userSpaceOnUse" x1="1948.1599" y1="1633.2948" x2="2062.8398" y2="1633.2948" gradientTransform="matrix(0.956 -0.2932 0.2932 0.956 -1270.8763 -813.0435)">
				<stop  offset="0" style="stop-color:#0089CE"/>
				<stop  offset="1" style="stop-color:#1C0A89"/>
			</linearGradient>
			<path style="fill-rule:evenodd;clip-rule:evenodd;fill:url(#SVGID_00000080196503106991347390000014415587254226546570_);" d="
				M1174.6,167.13c-0.25,0.09-0.5,0.19-0.73,0.29c-4.54,1.96-9.06,2.21-13.8,0.8l-34.08-10.23c-6.75-2.02-11.63-6.93-13.6-13.71
				c-1.3-4.48-3.89-8.64-7.7-11.91c-10.41-8.91-26.08-7.68-34.98,2.74c-8.91,10.42-7.68,26.08,2.74,34.99
				c9.4,8.04,23.06,7.82,32.19,0.06c5.38-4.58,12.14-6,18.9-3.97l34.08,10.22c4.74,1.42,8.37,4.13,11.09,8.26
				c2.9,4.42,8.54,6.48,13.76,4.63c6.12-2.17,9.33-8.89,7.16-15.01C1187.45,168.17,1180.73,164.96,1174.6,167.13z"/>
			
				<linearGradient id="SVGID_00000039092293848004827530000006044036339627747994_" gradientUnits="userSpaceOnUse" x1="2146.5635" y1="1697.3804" x2="2245.0933" y2="1697.3804" gradientTransform="matrix(0.956 -0.2932 0.2932 0.956 -1270.8763 -813.0435)">
				<stop  offset="0" style="stop-color:#0089CE"/>
				<stop  offset="1" style="stop-color:#1C0A89"/>
			</linearGradient>
			<path style="fill-rule:evenodd;clip-rule:evenodd;fill:url(#SVGID_00000039092293848004827530000006044036339627747994_);" d="
				M1301.4,170.87c5.04-3.67,10.85-4.79,16.9-3.25l4.13,1.05c6.54,1.67,11.43,6.01,13.86,12.3c1.95,5.06,5.77,9.41,11.05,11.93
				c10.97,5.24,24.12,0.59,29.36-10.38c5.24-10.98,0.59-24.13-10.39-29.37c-8.08-3.86-17.33-2.36-23.74,3.07
				c-5.15,4.37-11.52,5.83-18.05,4.17l-4.12-1.05c-6.03-1.53-10.61-5.3-13.27-10.93c-2.41-5.1-7.16-9.02-13.13-10.12
				c-9.88-1.84-19.38,4.69-21.21,14.56c-1.83,9.89,4.69,19.38,14.58,21.22C1292.48,175.02,1297.5,173.72,1301.4,170.87z"/>
		</g>
	</g>
	<g>
		<path class="st8" d="M144,200.61c1.27,0,1.9,0.57,1.9,1.72v23.06c0,1.27-0.64,1.9-1.9,1.9c-9.4,0-16.77-3.11-22.1-9.34
			c-1.52,15.75-7.08,28.07-16.67,36.96c-9.59,8.89-22.96,13.34-40.11,13.34c-17.91,0-31.63-4.22-41.16-12.67
			c-9.53-8.45-14.29-21.06-14.29-37.82c0-12.83,2.79-27.75,8.38-44.78l20.39,5.53c-3.81,12.07-5.72,22.74-5.72,32.01
			c0.12,10.29,2.95,18.04,8.48,23.25c5.53,5.21,13.56,7.81,24.1,7.81c21.21,0,31.82-11.88,31.82-35.63v-71.45V90.1l25.34-3.24v96.98
			c0.51,5.21,2.79,9.31,6.86,12.29C133.39,199.12,138.28,200.61,144,200.61z"/>
		<path class="st8" d="M180.96,200.61c1.27,0,1.91,0.57,1.91,1.72v23.06c0,1.27-0.64,1.9-1.91,1.9H144c-1.27,0-1.91-0.63-1.91-1.9
			v-23.06c0-1.14,0.64-1.72,1.91-1.72H180.96z"/>
		<path class="st8" d="M217.93,200.61c1.27,0,1.91,0.57,1.91,1.72v23.06c0,1.27-0.64,1.9-1.91,1.9h-36.96
			c-1.27,0-1.91-0.63-1.91-1.9v-23.06c0-1.14,0.64-1.72,1.91-1.72H217.93z"/>
		<path class="st8" d="M254.89,200.61c1.27,0,1.91,0.57,1.91,1.72v23.06c0,1.27-0.64,1.9-1.91,1.9h-36.96
			c-1.27,0-1.91-0.63-1.91-1.9v-23.06c0-1.14,0.64-1.72,1.91-1.72H254.89z"/>
		<path class="st8" d="M291.85,200.61c1.27,0,1.91,0.57,1.91,1.72v23.06c0,1.27-0.64,1.9-1.91,1.9h-36.96
			c-1.27,0-1.91-0.63-1.91-1.9v-23.06c0-1.14,0.64-1.72,1.91-1.72H291.85z"/>
		<path class="st8" d="M328.82,200.61c1.27,0,1.91,0.57,1.91,1.72v23.06c0,1.27-0.64,1.9-1.91,1.9h-36.96
			c-1.27,0-1.91-0.63-1.91-1.9v-23.06c0-1.14,0.64-1.72,1.91-1.72H328.82z"/>
		<path class="st8" d="M365.78,200.61c1.27,0,1.91,0.57,1.91,1.72v23.06c0,1.27-0.64,1.9-1.91,1.9h-36.96
			c-1.27,0-1.91-0.63-1.91-1.9v-23.06c0-1.14,0.64-1.72,1.91-1.72H365.78z"/>
		<path class="st8" d="M402.75,200.61c1.27,0,1.91,0.57,1.91,1.72v23.06c0,1.27-0.64,1.9-1.91,1.9h-36.96
			c-1.27,0-1.91-0.63-1.91-1.9v-23.06c0-1.14,0.64-1.72,1.91-1.72H402.75z"/>
		<path class="st8" d="M439.71,200.61c1.27,0,1.91,0.57,1.91,1.72v23.06c0,1.27-0.64,1.9-1.91,1.9h-36.96
			c-1.27,0-1.91-0.63-1.91-1.9v-23.06c0-1.14,0.64-1.72,1.91-1.72H439.71z"/>
		<path class="st8" d="M491.54,131.06c13.08,0,23.97,4.29,32.68,12.86c8.7,8.57,13.05,19.34,13.05,32.3
			c0,15.62-4.86,28.04-14.58,37.25c-9.72,9.21-22.96,13.81-39.73,13.81h-43.25c-1.27,0-1.91-0.63-1.91-1.9v-23.06
			c0-1.14,0.64-1.72,1.91-1.72h12.96c-4.32-9.02-6.48-17.15-6.48-24.39c0-13.34,4.25-24.2,12.77-32.58
			C467.46,135.25,478.32,131.06,491.54,131.06z M483.54,200.61c8.76,0,15.69-2.16,20.77-6.48c5.08-4.32,7.62-10.22,7.62-17.72
			c0-6.1-2-11.15-6-15.15c-4-4-8.99-6-14.96-6c-5.97,0-11.05,2.16-15.24,6.48c-4.19,4.32-6.29,9.46-6.29,15.43
			c0,7.24,2.29,15.05,6.86,23.44H483.54z"/>
		<path class="st8" d="M603,227.28c-29.22,0-43.82-13.21-43.82-39.63l-0.19-96.22l25.34-3.24v91.08c0,7.37,1.49,12.77,4.48,16.2
			c2.98,3.43,7.65,5.14,14,5.14c1.27,0,1.91,0.57,1.91,1.72l0.19,23.06C604.91,226.65,604.27,227.28,603,227.28z"/>
		<path class="st8" d="M726.47,200.61c1.27,0,1.9,0.57,1.9,1.72v23.06c0,1.27-0.64,1.9-1.9,1.9c-11.05,0-20.9-4.13-29.53-12.38
			c-8,8.26-19.31,12.38-33.92,12.38H603c-1.27,0-1.91-0.63-1.91-1.9v-23.06c0-1.14,0.64-1.72,1.91-1.72h59.45
			c6.35,0,11.37-1.52,15.05-4.57c3.68-3.05,5.53-7.17,5.53-12.38c0-5.21-1.84-9.37-5.53-12.48c-3.69-3.11-8.64-4.67-14.86-4.67
			h-43.82l-13.15-23.06l54.87-66.88l23.44,12.77l-51.07,54.3h28.01c14.35,0,25.82,3.65,34.39,10.95
			c8.57,7.31,12.86,17.05,12.86,29.25c0,4.07-0.38,7.94-1.14,11.62C712.75,198.89,719.23,200.61,726.47,200.61z"/>
		<path class="st8" d="M799.45,200.61c1.27,0,1.9,0.57,1.9,1.72v23.06c0,1.27-0.64,1.9-1.9,1.9c-10.93,0-21.15-4.76-30.68-14.29
			c-8,9.53-22.1,14.29-42.3,14.29c-1.27,0-1.91-0.63-1.91-1.9l0.19-23.06c0-1.14,0.64-1.72,1.9-1.72c8.51,0,14.8-1.65,18.86-4.95
			c4.06-3.3,6.1-8.57,6.1-15.81v-25.53l25.15-3.24v37.35c0,2.29-0.07,4-0.19,5.14C783.57,198.26,791.19,200.61,799.45,200.61z
			 M763.25,125.34l-15.05,14.86l-18.48-18.1l18.1-18.1l15.43,14.86L778.49,104l18.48,18.1l-18.29,18.1L763.25,125.34z"/>
		<path class="st8" d="M851.28,131.06c13.08,0,23.97,4.29,32.68,12.86c8.7,8.57,13.05,19.34,13.05,32.3
			c0,15.62-4.86,28.04-14.58,37.25c-9.72,9.21-22.96,13.81-39.73,13.81h-43.25c-1.27,0-1.91-0.63-1.91-1.9v-23.06
			c0-1.14,0.64-1.72,1.91-1.72h12.96c-4.32-9.02-6.48-17.15-6.48-24.39c0-13.34,4.25-24.2,12.77-32.58
			C827.2,135.25,838.06,131.06,851.28,131.06z M843.27,200.61c8.76,0,15.69-2.16,20.77-6.48c5.08-4.32,7.62-10.22,7.62-17.72
			c0-6.1-2-11.15-6-15.15c-4-4-8.99-6-14.96-6c-5.97,0-11.05,2.16-15.24,6.48c-4.19,4.32-6.29,9.46-6.29,15.43
			c0,7.24,2.29,15.05,6.86,23.44H843.27z"/>
	</g>
	<g>
		<path d="M88.92,410.71H78.84l-41.91-63.14v91.96H21.89V319.28h16.27l46.51,70.74l46.69-70.74h16.09V438.3l-16.45,2.48v-93.2
			L88.92,410.71z"/>
		<path d="M282.13,423.8c-11.49,11.67-26.97,17.51-46.42,17.51c-19.45,0-34.93-5.84-46.42-17.51
			c-11.49-11.67-17.24-26.47-17.24-44.39c0-17.8,5.75-32.57,17.24-44.3c11.5-11.73,26.97-17.6,46.42-17.6
			c19.45,0,34.93,5.87,46.42,17.6c11.49,11.73,17.24,26.5,17.24,44.3C299.37,397.33,293.62,412.13,282.13,423.8z M235.71,331.48
			c-14.27,0-25.64,4.42-34.13,13.26c-8.49,8.84-12.73,20.4-12.73,34.66c0,14.39,4.24,25.97,12.73,34.75
			c8.49,8.78,19.86,13.17,34.13,13.17c14.38,0,25.79-4.39,34.22-13.17c8.43-8.78,12.65-20.37,12.65-34.75
			c0-14.26-4.22-25.82-12.65-34.66C261.49,335.9,250.09,331.48,235.71,331.48z"/>
		<path d="M350.66,439.54V333.25h-41.74v-13.97h100.1l-2.3,13.97h-39.44v106.29H350.66z"/>
		<path d="M509.29,441.31l-38.55-56.06h-26.7v54.29h-16.45V319.28h16.45v51.99h27.41l35.02-51.99h18.92l-40.5,58.71l42.27,61.01
			L509.29,441.31z"/>
		<path d="M634.68,440.78l-12.03-29.36h-62.07l-11.49,28.12H532.1l50.22-120.08l18.75-2.3l50.05,121.14L634.68,440.78z
			 M566.24,397.62h50.76l-25.47-62.07L566.24,397.62z"/>
		<path d="M737.25,410.71h-10.08l-41.91-63.14v91.96h-15.03V319.28h16.27l46.51,70.74l46.69-70.74h16.09V438.3l-16.45,2.48v-93.2
			L737.25,410.71z"/>
		<path d="M827.09,439.54v-119.2l16.45-2.3v107.52h66.14l2.3,13.97H827.09z"/>
	</g>
</g>
</svg>
